<?xml version="1.0" standalone="no"?>
<!DOCTYPE svg PUBLIC "-//W3C//DTD SVG 20010904//EN"
 "http://www.w3.org/TR/2001/REC-SVG-20010904/DTD/svg10.dtd">
<svg version="1.0" xmlns="http://www.w3.org/2000/svg"
 width="1555.000000pt" height="1555.000000pt" viewBox="0 0 1555.000000 1555.000000"
 preserveAspectRatio="xMidYMid meet">

<g transform="translate(0.000000,1555.000000) scale(0.100000,-0.100000)"
fill="#000" stroke="none">
<path d="M7637 14922 c-21 -2 -53 -14 -72 -27 -46 -31 -125 -44 -650 -110
-898 -112 -983 -135 -1560 -420 -340 -168 -402 -220 -587 -485 -80 -116 -259
-342 -655 -830 -333 -411 -441 -565 -538 -765 -245 -503 -399 -1227 -365
-1711 18 -250 65 -546 104 -651 8 -21 23 -63 35 -95 11 -31 26 -89 32 -130 17
-112 54 -172 205 -329 157 -162 171 -190 158 -302 -15 -132 -12 -192 14 -224
64 -80 83 -110 111 -176 44 -107 68 -214 86 -382 16 -152 27 -186 49 -151 26
44 59 76 77 76 11 0 43 -16 71 -35 78 -54 81 -50 90 202 7 216 23 354 57 508
28 129 67 389 91 614 44 408 84 569 201 802 173 347 261 609 324 968 28 158
64 276 96 320 18 24 19 31 8 49 -10 16 -9 28 5 66 32 84 118 135 282 166 547
105 1117 240 1442 342 266 83 301 89 487 93 110 1 222 10 315 24 80 12 197 24
260 27 132 7 209 -10 404 -85 158 -61 291 -89 486 -101 91 -6 192 -15 225 -21
189 -33 353 -97 379 -147 7 -15 17 -78 21 -143 8 -141 25 -179 78 -179 92 0
68 -87 -28 -98 -57 -6 -64 -16 -25 -38 33 -20 60 -68 60 -106 0 -27 28 -58 52
-58 9 0 33 6 55 14 l40 14 -1 -37 c0 -30 7 -47 37 -81 39 -45 54 -93 42 -132
-4 -12 -34 -80 -66 -150 -38 -82 -59 -139 -59 -163 0 -33 4 -38 39 -52 52 -20
64 -48 50 -115 -14 -61 0 -119 34 -143 42 -30 49 -12 17 48 -11 20 -17 37 -12
37 14 0 95 -85 128 -135 24 -36 114 -249 114 -269 0 -1 -171 1 -379 2 -237 3
-418 0 -483 -7 -93 -10 -105 -14 -129 -40 -29 -32 -77 -45 -209 -56 -93 -8
-192 -29 -244 -50 -48 -20 -83 -13 -88 17 -6 43 -35 30 -115 -51 -75 -76 -81
-80 -115 -75 -68 11 -132 -42 -172 -142 -126 -315 -138 -1242 -26 -1959 44
-277 38 -346 -40 -444 -55 -69 -93 -85 -191 -76 -70 6 -83 5 -114 -14 -20 -12
-52 -21 -71 -21 -40 0 -170 42 -307 99 -127 53 -199 71 -281 71 -58 0 -70 -3
-91 -25 -15 -14 -25 -36 -25 -53 0 -112 -334 -322 -512 -322 -60 0 -92 26 -82
68 23 93 286 496 387 593 32 30 48 53 45 65 -12 63 -307 -20 -521 -147 -190
-113 -579 -614 -657 -848 -19 -56 -20 -71 -10 -135 5 -39 16 -145 24 -236 15
-183 28 -225 88 -275 72 -61 227 -115 328 -115 97 1 156 21 330 115 142 76
329 96 920 98 418 2 467 -2 548 -40 27 -13 41 -30 63 -78 15 -34 35 -68 45
-76 10 -8 52 -16 101 -20 99 -8 119 -20 108 -69 -7 -33 -58 -89 -134 -149 -44
-34 -44 -47 -1 -53 35 -4 35 -28 0 -73 -37 -47 -39 -81 -5 -97 14 -6 25 -15
25 -19 0 -12 -84 -22 -119 -14 -40 9 -46 19 -31 56 18 41 7 45 -30 11 -29 -25
-32 -33 -26 -64 14 -77 141 -181 261 -213 53 -15 79 -16 143 -9 l77 9 3 37 c6
69 110 158 218 187 48 13 78 42 80 79 1 42 20 37 63 -18 60 -76 57 -102 -23
-187 -100 -108 -106 -129 -46 -169 49 -33 50 -44 6 -44 -18 0 -39 -7 -46 -15
-10 -12 -8 -21 14 -49 28 -38 34 -91 15 -129 -18 -33 -79 -107 -90 -107 -5 0
-9 11 -9 24 0 38 -19 41 -52 10 -44 -43 -81 -120 -80 -171 1 -38 -1 -43 -22
-43 -27 0 -52 25 -61 63 -9 34 -18 34 -44 1 -31 -39 -43 -98 -41 -189 4 -114
3 -115 -24 -115 -30 0 -55 -33 -102 -137 -51 -112 -75 -140 -137 -158 -65 -19
-89 -37 -129 -100 -39 -59 -67 -75 -131 -75 -81 0 -326 54 -390 87 -41 21 -64
9 -72 -37 -10 -57 -25 -66 -85 -51 -65 17 -75 9 -50 -40 11 -21 18 -39 14 -39
-3 0 -31 18 -61 40 -31 22 -60 40 -65 40 -4 0 -8 -17 -8 -37 0 -44 -25 -87
-66 -114 -38 -25 -41 -24 -59 11 -19 36 -27 37 -55 8 -57 -60 -77 -146 -46
-193 17 -26 96 -88 103 -81 3 2 -3 18 -11 35 -18 34 -21 61 -6 61 11 0 54 -73
115 -194 22 -44 45 -81 51 -83 7 -2 14 17 17 48 4 28 9 54 11 57 17 16 137
-101 170 -167 26 -51 35 -121 15 -121 -6 0 -20 5 -31 11 -18 10 -25 8 -40 -11
-67 -83 65 -313 194 -339 34 -7 43 -23 63 -115 3 -16 19 -41 35 -57 31 -31 67
-40 56 -14 -18 46 -13 45 34 -5 62 -67 127 -164 135 -201 5 -20 -1 -41 -22
-76 -52 -90 -34 -227 49 -355 51 -78 68 -119 70 -163 2 -50 -16 -65 -77 -65
-56 0 -79 -15 -73 -47 5 -26 49 -28 128 -4 85 26 136 26 177 1 42 -25 62 -67
79 -162 16 -91 28 -118 52 -118 21 0 59 39 90 90 11 19 37 50 56 69 29 29 45
35 91 39 30 2 55 2 55 -1 0 -3 -16 -14 -35 -26 -19 -11 -35 -26 -35 -34 0 -7
16 -35 34 -62 19 -27 33 -52 30 -57 -3 -4 -43 -8 -90 -8 -108 0 -124 -13 -124
-99 0 -71 -16 -121 -39 -121 -23 0 -41 20 -41 45 0 30 -31 55 -68 55 -43 0
-47 -14 -14 -52 55 -63 52 -101 -22 -233 -29 -52 -36 -68 -18 -45 15 19 54 63
88 97 85 89 134 84 134 -11 0 -40 -28 -76 -59 -76 -25 0 -43 -24 -39 -52 2
-18 10 -24 39 -26 31 -3 41 2 67 32 33 38 52 90 52 144 0 41 24 100 45 108 8
4 22 0 31 -7 14 -12 15 -28 10 -116 -5 -69 -4 -103 3 -103 6 0 25 9 43 20 36
22 75 25 124 11 54 -15 61 -2 41 76 -9 37 -17 78 -17 90 0 20 3 21 26 13 35
-14 77 10 117 66 17 24 34 44 39 44 20 0 4 -53 -32 -106 -26 -39 -40 -70 -40
-91 0 -18 18 -87 41 -153 25 -77 39 -135 37 -158 -3 -38 -8 -41 -55 -26 -31 9
-30 -4 13 -98 42 -92 40 -115 -11 -154 -22 -16 -35 -35 -35 -49 0 -31 53 -101
91 -121 40 -20 121 -20 185 2 140 46 401 184 589 309 770 514 1402 1404 1408
1985 1 83 -3 102 -25 150 -56 118 -153 182 -418 275 -214 75 -264 106 -301
191 -45 100 -44 230 6 814 43 494 62 622 116 778 17 48 107 240 199 427 168
338 246 518 302 690 38 118 96 234 158 317 28 37 119 139 202 228 234 248 320
366 413 562 66 139 94 259 105 453 20 328 131 850 226 1066 63 142 59 278 -12
381 -39 56 -35 137 15 330 67 256 127 608 153 891 14 158 7 253 -63 886 -60
545 -103 731 -228 981 -100 199 -196 338 -420 610 -80 96 -203 247 -275 335
-199 247 -388 457 -469 525 -35 28 -60 40 -97 45 -64 9 -119 49 -309 226 -192
179 -311 276 -461 375 -128 84 -499 303 -599 354 -252 127 -1018 286 -1264
262z m1683 -5946 c43 -14 43 -26 -1 -48 -95 -47 -371 -69 -436 -35 -60 32 -53
56 23 77 98 28 335 31 414 6z m250 -185 c0 -20 -57 -71 -78 -71 -20 0 -13 17
22 54 37 40 56 46 56 17z m316 -92 c74 -28 136 -72 193 -137 64 -75 67 -93 19
-107 -21 -6 -47 -19 -59 -29 -19 -16 -21 -24 -14 -92 7 -72 6 -74 -22 -101
-16 -16 -43 -36 -61 -45 -18 -9 -32 -24 -32 -33 0 -8 16 -39 35 -67 39 -57 40
-70 4 -78 -35 -8 -35 -46 -3 -141 30 -89 26 -107 -20 -89 -15 5 -38 10 -50 10
-20 0 -24 -6 -28 -44 -3 -24 -24 -84 -47 -133 -48 -105 -51 -134 -15 -162 40
-32 28 -52 -58 -94 -43 -21 -78 -45 -78 -52 0 -7 11 -22 25 -32 29 -20 54 -81
55 -130 0 -49 -19 -81 -56 -93 -34 -12 -44 -26 -44 -67 0 -22 3 -25 30 -21 25
4 31 1 36 -16 8 -33 -32 -172 -67 -233 -31 -54 -32 -57 -24 -137 17 -174 4
-269 -67 -476 -46 -134 -147 -349 -212 -450 -106 -163 -234 -257 -252 -185 -4
15 -1 101 5 192 13 200 11 196 173 354 156 154 153 145 152 449 -1 278 -11
347 -69 468 -73 154 -255 396 -464 618 -239 253 -289 342 -303 539 -5 66 -18
167 -28 224 -41 216 15 287 255 321 44 6 105 18 136 26 77 19 159 18 334 -6
230 -31 302 -25 362 32 51 48 156 55 259 17z m-1180 -3000 c9 -15 -16 -30 -46
-27 -14 2 -26 10 -28 21 -3 13 4 17 32 17 19 0 38 -5 42 -11z m-1599 -2090
c17 -17 -3 -64 -39 -94 -39 -33 -48 -32 -48 9 0 22 9 45 26 65 27 33 43 38 61
20z m53 -269 c13 -25 4 -60 -15 -60 -17 0 -28 34 -20 60 8 26 21 25 35 0z
m964 -1426 c19 -48 -1 -84 -46 -84 -37 0 -38 34 -1 72 31 32 38 34 47 12z
m580 -433 c23 -25 13 -84 -12 -79 -22 4 -62 66 -55 84 8 20 47 17 67 -5z m1
-242 c0 -24 -5 -34 -15 -34 -16 0 -25 37 -16 62 10 26 31 8 31 -28z m-21 -125
c35 -35 -34 -87 -107 -82 -31 2 -43 8 -45 21 -10 51 113 101 152 61z m20 -228
c0 -46 -25 -95 -54 -104 -16 -6 -8 58 16 119 21 52 39 45 38 -15z"/>
<path d="M9530 11246 c0 -25 46 -81 69 -84 19 -3 22 0 17 13 -3 9 -6 20 -6 24
0 5 -11 20 -25 35 -26 28 -55 35 -55 12z"/>
<path d="M5950 10044 c-326 -44 -618 -119 -763 -196 -58 -31 -147 -111 -147
-132 0 -6 53 -38 118 -70 168 -83 333 -175 360 -199 12 -11 22 -27 22 -34 0
-8 -32 -45 -72 -82 -64 -61 -72 -72 -71 -104 1 -34 -1 -36 -38 -42 -79 -14
-30 -57 77 -69 34 -4 180 -11 325 -16 355 -13 416 -27 551 -127 l68 -49 -126
-22 c-152 -27 -239 -58 -239 -87 0 -38 47 -49 237 -53 271 -6 342 11 458 112
42 37 103 76 171 109 92 44 110 57 132 94 19 30 35 45 59 51 37 9 72 53 88
111 46 163 53 434 12 525 -60 134 -286 240 -599 281 -143 19 -479 18 -623 -1z
m-197 -536 c17 -23 18 -30 7 -43 -15 -18 -41 -12 -82 17 -29 20 -38 63 -15 71
20 7 69 -17 90 -45z"/>
<path d="M5109 9521 c30 -42 119 -119 161 -141 20 -10 52 -21 71 -25 42 -8
122 11 117 27 -3 7 -49 30 -104 53 -54 23 -132 58 -171 78 -87 45 -101 46 -74
8z"/>
<path d="M3337 9110 c-41 -33 -49 -78 -53 -325 l-5 -230 45 94 c57 116 125
213 170 240 19 12 60 24 95 27 33 4 61 11 61 15 0 19 -179 165 -227 186 -43
18 -56 17 -86 -7z"/>
<path d="M7458 5748 c-8 -14 -13 -58 -13 -115 0 -81 3 -95 21 -114 l22 -21 18
27 c25 38 26 181 1 219 -21 32 -32 33 -49 4z"/>
<path d="M8320 5453 c-56 -47 -85 -136 -60 -184 17 -30 27 -22 32 26 7 55 29
90 74 117 25 15 34 27 32 42 -4 31 -40 31 -78 -1z"/>
<path d="M7549 5424 c-18 -49 44 -105 78 -71 12 12 13 19 3 38 -32 62 -64 75
-81 33z"/>
<path d="M6579 3551 c-41 -44 -52 -75 -21 -64 24 8 82 64 82 79 0 29 -24 23
-61 -15z"/>
<path d="M6665 3478 c-91 -101 -100 -134 -18 -70 59 47 105 100 97 113 -11 19
-34 7 -79 -43z"/>
<path d="M6764 3345 c-10 -42 3 -98 28 -117 13 -10 40 -18 61 -18 50 0 49 21
-8 89 -57 71 -72 79 -81 46z"/>
<path d="M7717 1813 c-3 -5 -9 -30 -13 -54 -9 -60 -30 -94 -72 -113 -25 -12
-32 -20 -24 -28 16 -16 76 -1 100 25 24 26 52 87 52 116 0 24 -35 68 -43 54z"/>
<path d="M7203 1020 c-28 -11 -29 -26 -3 -40 28 -15 70 -2 70 21 0 10 -4 19
-9 19 -5 0 -15 2 -23 4 -7 3 -23 1 -35 -4z"/>
<path d="M6929 900 c-78 -13 -89 -23 -89 -80 0 -53 -1 -53 -57 -50 -41 2 -73
-8 -73 -23 0 -6 17 -29 38 -51 25 -27 31 -37 17 -31 -11 4 -47 12 -80 18 -110
19 -153 -30 -106 -120 24 -48 52 -74 58 -55 8 21 34 14 89 -24 29 -20 57 -34
62 -30 5 3 12 29 14 57 3 28 12 55 19 60 8 5 35 6 61 3 55 -7 78 5 78 42 0 32
10 30 45 -6 71 -74 185 6 155 110 -6 19 -10 45 -10 57 0 22 4 23 64 23 97 0
139 47 70 79 -60 27 -251 38 -355 21z"/>
<path d="M7284 737 c-10 -28 0 -72 18 -75 21 -4 36 43 21 66 -14 22 -32 26
-39 9z"/>
<path d="M6650 424 c0 -41 67 -110 87 -91 9 10 -8 46 -37 76 -31 34 -50 40
-50 15z"/>
</g>
</svg>
